/* XPM */
const char *icon_xpm[] =
{
    "64 64 9 1 ",
    "  c None",
    ". c gray1",
    "X c #202020",
    "o c #2A2A2A",
    "O c #412910",
    "+ c #A47B41",
    "@ c #FFA4A4",
    "# c #E7DED8",
    "$ c white",

    "                                                                ",
    "                                                                ",
    "                                                                ",
    "                                                                ",
    "            OOOOOOOOOOOOOOOO                                    ",
    "            OOOOOOOOOOOOOOOO                                    ",
    "        OOOO++++++++++++++++OOOO                                ",
    "        OOOO++++++++++++++++OOOO                                ",
    "      OO++++++++++++++++++++++++OOOO....................        ",
    "      OO++++++++++++++++++++++++OOOO....................        ",
    "    OO++++++++OOOOOOOOOOOO++++++++++OOoooooooooooooooooo..      ",
    "    OO++++++++OOOOOOOOOOOO++++++++++OOoooooooooooooooooo..      ",
    "  OO++++++OOOOoooo........OO++++..++OO........oooooooooo..      ",
    "  OO++++++OOOOoooo........OO++++..++OO........oooooooooo..      ",
    "  OO++++OOoooooooo..$$$$$$OO##++++++++OO$$$$..oooooooooo..      ",
    "  OO++++OOoooooooo..$$$$$$OO##++++++++OO$$$$..oooooooooo..      ",
    "OO++++++OOoooooooo..$$$$$$$$OO####++++OO$$$$..oooooooooo..      ",
    "OO++++++OOoooooooo..$$$$$$$$OO####++++OO$$$$..oooooooooo..      ",
    "OO++++OOoooooooooo..$$$$$$$$$$OOOO##++OO$$$$..oooooooooo..      ",
    "OO++++OOoooooooooo..$$$$$$$$$$OOOO##++OO$$$$..oooooooooo..      ",
    "OO++++OOoooooooooo..$$$$$$$$$$$$$$OOOO@@$$$$..oooooooooo..      ",
    "OO++++OOoooooooooo..$$$$$$$$$$$$$$OOOO@@$$$$..oooooooooo..      ",
    "OO++++OOoooooooooo..$$$$$$$$$$$$$$$$$$$$@@$$..oooooooooo..      ",
    "OO++++OOoooooooooo..$$$$$$$$$$$$$$$$$$$$@@$$..oooooooooo..      ",
    "OO++++..oooooooooo..$$$$$$$$$$$$$$$$$$$$@@$$..oooooooooo..      ",
    "OO++++..oooooooooo..$$$$$$$$$$$$$$$$$$$$@@$$..oooooooooo..      ",
    "  OO++..oooooooooo..$$$$$$$$$$$$$$$$$$$$$$$$..oooooooooo..      ",
    "  OO++..oooooooooo..$$$$$$$$$$$$$$$$$$$$$$$$..oooooooooo..      ",
    "    OO..oooooooooo............................oooooooooo..      ",
    "    OO..oooooooooo............................oooooooooo..      ",
    "      ..oooooooooooooooooooooooooooooooooooooooooooooooo..OO    ",
    "      ..oooooooooooooooooooooooooooooooooooooooooooooooo..OO    ",
    "        ................................................++++OO  ",
    "        ................................................++++OO  ",
    "      ....................................................++++OO",
    "      ....................................................++++OO",
    "      ..ooooooooooooooooooooooooooooooooooooooooooooooooOO++++OO",
    "      ..ooooooooooooooooooooooooooooooooooooooooooooooooOO++++OO",
    "      ..oooooooooo............................ooooooooooOO++++OO",
    "      ..oooooooooo............................ooooooooooOO++++OO",
    "    ..oooooooooooo..$$$$$$$$$$$$$$$$$$$$$$$$..ooooooooOO++++++OO",
    "    ..oooooooooooo..$$$$$$$$$$$$$$$$$$$$$$$$..ooooooooOO++++++OO",
    "    ..oooooooooo..$$$$$$$$$$$$$$$$$$$$$$$$$$$$..ooOOOO++++++++OO",
    "    ..oooooooooo..$$$$$$$$$$$$$$$$$$$$$$$$$$$$..ooOOOO++++++++OO",
    "    ..oooooooooo..$$$$$$$$$$$$$$$$$$$$$$$$$$$$OOOO++++++++++OO  ",
    "    ..oooooooooo..$$$$$$$$$$$$$$$$$$$$$$$$$$$$OOOO++++++++++OO  ",
    "  ..oooooooooooo........................OOOOOO++++++++++++OO..  ",
    "  ..oooooooooooo........................OOOOOO++++++++++++OO..  ",
    "  ..ooooooooooooooooooooooooooooooooOOOO++++++++++++++OOOOoo..  ",
    "  ..ooooooooooooooooooooooooooooooooOOOO++++++++++++++OOOOoo..  ",
    "  ............................OOOOOO++++++++++++OOOOOO........  ",
    "  ............................OOOOOO++++++++++++OOOOOO........  ",
    "  ..XXXXXXXXXXXXXXXXXXXXXXOOOO++++++++++++OOOOOOXXXXXXXXXXXX..  ",
    "  ..XXXXXXXXXXXXXXXXXXXXXXOOOO++++++++++++OOOOOOXXXXXXXXXXXX..  ",
    "    ..................OOOO++++++++OOOOOOOO..................    ",
    "    ..................OOOO++++++++OOOOOOOO..................    ",
    "                    OO++++OOOOOOOO                              ",
    "                    OO++++OOOOOOOO                              ",
    "                  OOOOOOOO                                      ",
    "                  OOOOOOOO                                      ",
    "                                                                ",
    "                                                                ",
    "                                                                ",
    "                                                                "
};
